<svg width="60" height="60" viewBox="0 0 60 60" fill="none" xmlns="http://www.w3.org/2000/svg">
<path fill-rule="evenodd" clip-rule="evenodd" d="M30 56.25C15.5025 56.25 3.75 44.4938 3.75 30C3.75 15.5063 15.5025 3.75 30 3.75C44.4975 3.75 56.25 15.5063 56.25 30C56.25 44.4938 44.4975 56.25 30 56.25ZM30 0C13.4306 0 0 13.425 0 30C0 46.575 13.4306 60 30 60C46.5694 60 60 46.575 60 30C60 13.425 46.5694 0 30 0ZM40.7193 19.2751C39.9806 18.5438 38.7862 18.5438 38.0475 19.2751L29.9888 27.3374L22.0462 19.3874C21.3131 18.6562 20.1244 18.6562 19.395 19.3874C18.6619 20.1187 18.6619 21.3188 19.395 22.05L27.3375 29.9812L19.3388 37.9875C18.6019 38.7188 18.6019 39.9186 19.3388 40.6686C20.0775 41.3999 21.2737 41.3999 22.0125 40.6686L30.0112 32.6626L37.9538 40.6126C38.6869 41.3438 39.8756 41.3438 40.6068 40.6126C41.34 39.8813 41.34 38.6812 40.6068 37.95L32.6625 30.0188L40.7193 21.9562C41.4562 21.2062 41.4562 20.0251 40.7193 19.2751Z" fill="white"/>
</svg>
