<svg width="40" height="36" viewBox="0 0 40 36" fill="none" xmlns="http://www.w3.org/2000/svg">
<path fill-rule="evenodd" clip-rule="evenodd" d="M38 16H2C0.896 16 0 16.896 0 18C0 19.106 0.896 20 2 20H38C39.104 20 40 19.106 40 18C40 16.896 39.104 16 38 16ZM38 32H2C0.896 32 0 32.896 0 34C0 35.106 0.896 36 2 36H38C39.104 36 40 35.106 40 34C40 32.896 39.104 32 38 32ZM2 4H38C39.104 4 40 3.106 40 2C40 0.896 39.104 0 38 0H2C0.896 0 0 0.896 0 2C0 3.106 0.896 4 2 4Z" fill="#F2F7FD" fill-opacity="0.933333"/>
</svg>
