<svg xmlns="http://www.w3.org/2000/svg" width="16" height="16" viewBox="0 0 16 16" fill="none">
  <path d="M9.8884 5.17156L6.11714 8.94278C5.85678 9.20311 5.85678 9.62524 6.11714 9.88558C6.37748 10.146 6.7996 10.146 7.05994 9.88558L10.8312 6.11437C11.6122 5.33332 11.6122 4.06699 10.8312 3.28594C10.0501 2.50489 8.7838 2.50489 8.00274 3.28594L4.23152 7.05718C2.92977 8.35891 2.92977 10.4694 4.23152 11.7712C5.53326 13.073 7.6438 13.073 8.94554 11.7712L12.7168 7.99998L13.6596 8.94278L9.8884 12.714C8.06594 14.5364 5.11116 14.5364 3.28871 12.714C1.46626 10.8916 1.46626 7.93685 3.28871 6.11437L7.05994 2.34313C8.36167 1.04138 10.4723 1.04138 11.774 2.34313C13.0757 3.64488 13.0757 5.75542 11.774 7.05718L8.00274 10.8284C7.22174 11.6094 5.95538 11.6094 5.17433 10.8284C4.39328 10.0474 4.39328 8.78104 5.17433 7.99998L8.94554 4.22875L9.8884 5.17156Z" fill="white"/>
</svg>