<svg width="36" height="36" viewBox="0 0 36 36" fill="none" xmlns="http://www.w3.org/2000/svg">
<circle cx="18" cy="18" r="18" fill="#2B353D"/>
<path d="M19.8865 15.1716L16.1152 18.9428C15.8548 19.2031 15.8548 19.6252 16.1152 19.8856C16.3755 20.146 16.7977 20.146 17.058 19.8856L20.8293 16.1144C21.6103 15.3333 21.6103 14.067 20.8293 13.2859C20.0482 12.5049 18.7819 12.5049 18.0008 13.2859L14.2296 17.0572C12.9278 18.3589 12.9278 20.4694 14.2296 21.7712C15.5313 23.073 17.6419 23.073 18.9436 21.7712L22.7149 18L23.6576 18.9428L19.8865 22.714C18.064 24.5364 15.1092 24.5364 13.2868 22.714C11.4643 20.8916 11.4643 17.9368 13.2868 16.1144L17.058 12.3431C18.3597 11.0414 20.4703 11.0414 21.7721 12.3431C23.0738 13.6449 23.0738 15.7554 21.7721 17.0572L18.0008 20.8284C17.2198 21.6094 15.9534 21.6094 15.1724 20.8284C14.3913 20.0474 14.3913 18.781 15.1724 18L18.9436 14.2288L19.8865 15.1716Z" fill="white"/>
</svg>
