<svg xmlns="http://www.w3.org/2000/svg" width="20" height="20" viewBox="0 0 20 20" fill="none">
  <path d="M7.49935 0.833374V2.50004H12.4993V0.833374H14.166V2.50004H17.4993C17.9596 2.50004 18.3327 2.87314 18.3327 3.33337V16.6667C18.3327 17.127 17.9596 17.5 17.4993 17.5H2.49935C2.03912 17.5 1.66602 17.127 1.66602 16.6667V3.33337C1.66602 2.87314 2.03912 2.50004 2.49935 2.50004H5.83268V0.833374H7.49935ZM16.666 9.16671H3.33268V15.8334H16.666V9.16671ZM6.66602 10.8334V12.5H4.99935V10.8334H6.66602ZM10.8327 10.8334V12.5H9.16602V10.8334H10.8327ZM14.9993 10.8334V12.5H13.3327V10.8334H14.9993ZM5.83268 4.16671H3.33268V7.50004H16.666V4.16671H14.166V5.83337H12.4993V4.16671H7.49935V5.83337H5.83268V4.16671Z" fill="white"/>
</svg>