<svg width="18" height="18" viewBox="0 0 18 18" fill="none" xmlns="http://www.w3.org/2000/svg">
<g>
<path d="M14.0026 1.5H12.5776C10.9426 1.5 10.0801 2.3625 10.0801 3.9975V5.4225C10.0801 7.0575 10.9426 7.92 12.5776 7.92H14.0026C15.6376 7.92 16.5001 7.0575 16.5001 5.4225V3.9975C16.5001 2.3625 15.6376 1.5 14.0026 1.5Z" fill="currentColor"/>
<path d="M5.43 10.0725H4.005C2.3625 10.0725 1.5 10.935 1.5 12.57V13.995C1.5 15.6375 2.3625 16.5 3.9975 16.5H5.4225C7.0575 16.5 7.92 15.6375 7.92 14.0025V12.5775C7.9275 10.935 7.065 10.0725 5.43 10.0725Z" fill="currentColor"/>
<path d="M4.7175 7.935C6.49448 7.935 7.935 6.49448 7.935 4.7175C7.935 2.94052 6.49448 1.5 4.7175 1.5C2.94052 1.5 1.5 2.94052 1.5 4.7175C1.5 6.49448 2.94052 7.935 4.7175 7.935Z" fill="currentColor"/>
<path d="M13.2824 16.4999C15.0594 16.4999 16.4999 15.0594 16.4999 13.2824C16.4999 11.5055 15.0594 10.0649 13.2824 10.0649C11.5055 10.0649 10.0649 11.5055 10.0649 13.2824C10.0649 15.0594 11.5055 16.4999 13.2824 16.4999Z" fill="currentColor"/>
</g>
</svg>