<svg width="20" height="24" viewBox="0 0 20 24" fill="none" xmlns="http://www.w3.org/2000/svg">
<path d="M18.5835 3.26939C18.5835 3.26939 18.723 3.36783 16.552 2.70848C14.6057 2.11767 12.7647 1.99088 12.7647 1.99088L12.6371 1.08633C12.5494 0.462047 12.0383 0 11.4363 0H9.99958H8.56281C7.96164 0 7.45052 0.462047 7.36206 1.08633L7.23447 1.99088C7.23447 1.99088 5.39425 2.11767 3.448 2.70848C1.27614 3.36787 1.41569 3.26939 1.41569 3.26939C0.931751 3.40294 0.593689 3.86259 0.593689 4.38802V5.17059H9.99963H19.4064V4.38802C19.4064 3.86259 19.0683 3.40294 18.5835 3.26939Z" fill="white"/>
<path d="M2.15279 21.7843C2.2636 23.0384 3.31407 24 4.57346 24H15.4261C16.6851 24 17.736 23.0384 17.8468 21.7843L19.0487 6.44629H0.950867L2.15279 21.7843ZM14.032 9.83924C14.0559 9.4454 14.3944 9.14516 14.7883 9.16912C15.1821 9.19302 15.4819 9.53151 15.4584 9.9254L14.7791 21.1516C14.7552 21.5455 14.4167 21.8453 14.0229 21.8214C13.629 21.7975 13.3288 21.4594 13.3527 21.0655L14.032 9.83924ZM9.2852 9.88232C9.2852 9.48763 9.60493 9.1679 9.99957 9.1679C10.3943 9.1679 10.7139 9.48763 10.7139 9.88232V21.1085C10.7139 21.5032 10.3942 21.8229 9.99957 21.8229C9.60488 21.8229 9.2852 21.5031 9.2852 21.1085V9.88232ZM5.21091 9.16912C5.6048 9.14521 5.94329 9.4454 5.96719 9.83924L6.6473 21.0654C6.67121 21.4593 6.37102 21.7974 5.97718 21.8213C5.58329 21.8452 5.2448 21.5454 5.2209 21.1515L4.54079 9.92531C4.51684 9.53151 4.81702 9.19302 5.21091 9.16912Z" fill="white"/>
</svg>
