<svg width="25" height="27" viewBox="0 0 25 27" fill="none" xmlns="http://www.w3.org/2000/svg">
<path d="M25 4.5C25 2.025 22.9911 0 20.5357 0C19.3529 0.00379718 18.2196 0.479122 17.3832 1.32221C16.5467 2.16531 16.0752 3.30769 16.0714 4.5C16.0714 6.975 18.0804 9 20.5357 9C22.9911 9 25 6.975 25 4.5ZM25 22.5C25 20.025 22.9911 18 20.5357 18C19.3529 18.0038 18.2196 18.4791 17.3832 19.3222C16.5467 20.1653 16.0752 21.3077 16.0714 22.5C16.0714 24.975 18.0804 27 20.5357 27C22.9911 27 25 24.975 25 22.5ZM23.2143 4.5C23.2143 6.0012 22.025 7.2 20.5357 7.2C19.0464 7.2 17.8571 6.0012 17.8571 4.5C17.8571 2.9988 19.0464 1.8 20.5357 1.8C22.025 1.8 23.2143 2.9988 23.2143 4.5ZM23.2143 22.5C23.2143 24.0012 22.025 25.2 20.5357 25.2C19.0464 25.2 17.8571 24.0012 17.8571 22.5C17.8571 20.9988 19.0464 19.8 20.5357 19.8C22.025 19.8 23.2143 20.9988 23.2143 22.5ZM15.5964 8.298C15.2291 7.82023 14.932 7.2916 14.7143 6.7284L7.83393 10.5858C7.41936 10.0917 6.90343 9.69403 6.3217 9.42026C5.73998 9.14649 5.10628 9.00311 4.46429 9C3.28144 9.0038 2.14812 9.47912 1.31172 10.3222C0.47532 11.1653 0.00376705 12.3077 0 13.5C0 15.975 2.00893 18 4.46429 18C5.8125 18 7.0125 17.3754 7.83393 16.416L14.7143 20.2716C14.9321 19.7028 15.2321 19.1808 15.5964 18.7038L8.70357 14.8428C8.83393 14.418 8.92857 13.9698 8.92857 13.5C8.92857 13.0302 8.83571 12.5838 8.70179 12.1572L15.5964 8.298ZM7.14286 13.5C7.14286 15.0012 5.95357 16.2 4.46429 16.2C2.975 16.2 1.78571 15.0012 1.78571 13.5C1.78571 11.9988 2.975 10.8 4.46429 10.8C5.95357 10.8 7.14286 11.9988 7.14286 13.5Z" fill="white"/>
</svg>
