<svg xmlns="http://www.w3.org/2000/svg" width="18" height="18" viewBox="0 0 18 18" fill="none">
  <path d="M12.6695 4.11035L9.00223 7.77761L5.33497 4.11035C5.17286 3.94825 4.95301 3.85718 4.72376 3.85718C4.49451 3.85718 4.27465 3.94825 4.11255 4.11035C3.95044 4.27245 3.85938 4.49231 3.85938 4.72156C3.85938 4.95081 3.95044 5.17067 4.11255 5.33277L7.77981 9.00003L4.11255 12.6673C3.95044 12.8294 3.85938 13.0493 3.85938 13.2785C3.85938 13.5078 3.95044 13.7276 4.11255 13.8897C4.27465 14.0518 4.49451 14.1429 4.72376 14.1429C4.95301 14.1429 5.17286 14.0518 5.33497 13.8897L9.00223 10.2225L12.6695 13.8897C12.8316 14.0518 13.0515 14.1429 13.2807 14.1429C13.51 14.1429 13.7298 14.0518 13.8919 13.8897C14.054 13.7276 14.1451 13.5078 14.1451 13.2785C14.1451 13.0493 14.054 12.8294 13.8919 12.6673L10.2247 9.00003L13.8919 5.33277C14.054 5.17067 14.1451 4.95081 14.1451 4.72156C14.1451 4.49231 14.054 4.27245 13.8919 4.11035C13.7298 3.94825 13.51 3.85718 13.2807 3.85718C13.0515 3.85718 12.8316 3.94825 12.6695 4.11035Z" fill="white"/>
</svg>