<svg xmlns="http://www.w3.org/2000/svg" width="20" height="20" viewBox="0 0 20 20" fill="none">
  <path d="M3.33268 1.66669C2.87245 1.66669 2.49935 2.03979 2.49935 2.50002V4.16669H4.16602V3.33335H15.8327V16.6667H4.16602V15.8334H2.49935V17.5C2.49935 17.9603 2.87245 18.3334 3.33268 18.3334H16.666C17.1263 18.3334 17.4993 17.9603 17.4993 17.5V2.50002C17.4993 2.03979 17.1263 1.66669 16.666 1.66669H3.33268ZM7.49935 13.3334C7.49935 11.9526 8.6186 10.8334 9.99935 10.8334C11.3801 10.8334 12.4993 11.9526 12.4993 13.3334H7.49935ZM9.99935 10C9.07885 10 8.33268 9.25385 8.33268 8.33335C8.33268 7.41288 9.07885 6.66669 9.99935 6.66669C10.9198 6.66669 11.666 7.41288 11.666 8.33335C11.666 9.25385 10.9198 10 9.99935 10ZM4.99935 7.50002V5.83335H1.66602V7.50002H4.99935ZM4.99935 9.16669V10.8334H1.66602V9.16669H4.99935ZM4.99935 14.1667V12.5H1.66602V14.1667H4.99935Z" fill="white"/>
</svg>