<svg xmlns="http://www.w3.org/2000/svg" width="20" height="20" viewBox="0 0 20 20" fill="none">
  <g clip-path="url(#clip0_766_11667)">
    <path d="M16.6157 6.66665H17.5007C18.4212 6.66665 19.1673 7.41284 19.1673 8.33331V11.6666C19.1673 12.5871 18.4212 13.3333 17.5007 13.3333H16.6157C16.2057 16.6219 13.4003 19.1666 10.0007 19.1666V17.5C12.7621 17.5 15.0007 15.2614 15.0007 12.5V7.49998C15.0007 4.73855 12.7621 2.49998 10.0007 2.49998C7.23923 2.49998 5.00065 4.73855 5.00065 7.49998V13.3333H2.50065C1.58018 13.3333 0.833984 12.5871 0.833984 11.6666V8.33331C0.833984 7.41284 1.58018 6.66665 2.50065 6.66665H3.38556C3.79564 3.37805 6.60097 0.833313 10.0007 0.833313C13.4003 0.833313 16.2057 3.37805 16.6157 6.66665ZM2.50065 8.33331V11.6666H3.33398V8.33331H2.50065ZM16.6673 8.33331V11.6666H17.5007V8.33331H16.6673ZM6.46685 13.1541L7.3503 11.7406C8.11866 12.2218 9.02715 12.5 10.0007 12.5C10.9742 12.5 11.8827 12.2218 12.651 11.7406L13.5345 13.1541C12.51 13.7957 11.2987 14.1666 10.0007 14.1666C8.70265 14.1666 7.49133 13.7957 6.46685 13.1541Z" fill="white"/>
  </g>
  <defs>
    <clipPath id="clip0_766_11667">
      <rect width="20" height="20" fill="white"/>
    </clipPath>
  </defs>
</svg>