<svg xmlns="http://www.w3.org/2000/svg" width="24" height="24" viewBox="0 0 24 24" fill="none">
  <path d="M6.4 16.8009H9.792C9.89728 16.8015 10.0017 16.7814 10.0991 16.7416C10.1966 16.7018 10.2852 16.6431 10.36 16.569L15.896 11.0266L18.168 8.80325C18.243 8.7289 18.3025 8.64044 18.3431 8.54298C18.3837 8.44552 18.4046 8.34099 18.4046 8.23541C18.4046 8.12983 18.3837 8.0253 18.3431 7.92784C18.3025 7.83038 18.243 7.74192 18.168 7.66758L14.776 4.23657C14.7016 4.16161 14.6131 4.10211 14.5157 4.06151C14.4182 4.0209 14.3136 4 14.208 4C14.1024 4 13.9978 4.0209 13.9003 4.06151C13.8029 4.10211 13.7144 4.16161 13.64 4.23657L11.384 6.49991L5.832 12.0423C5.75785 12.117 5.69919 12.2057 5.65938 12.3031C5.61957 12.4005 5.59939 12.5049 5.6 12.6101V16.0012C5.6 16.2133 5.68429 16.4167 5.83431 16.5667C5.98434 16.7167 6.18783 16.8009 6.4 16.8009ZM14.208 5.93208L16.472 8.19542L15.336 9.33109L13.072 7.06775L14.208 5.93208ZM7.2 12.938L11.944 8.19542L14.208 10.4588L9.464 15.2014H7.2V12.938ZM19.2 18.4005H4.8C4.58783 18.4005 4.38434 18.4847 4.23431 18.6347C4.08429 18.7847 4 18.9881 4 19.2002C4 19.4123 4.08429 19.6158 4.23431 19.7658C4.38434 19.9157 4.58783 20 4.8 20H19.2C19.4122 20 19.6157 19.9157 19.7657 19.7658C19.9157 19.6158 20 19.4123 20 19.2002C20 18.9881 19.9157 18.7847 19.7657 18.6347C19.6157 18.4847 19.4122 18.4005 19.2 18.4005Z" fill="#127DC3"/>
</svg>