<svg width="72" height="54" fill="none" viewBox="0 0 144 108" xmlns="http://www.w3.org/2000/svg">
<path d="M72.3385 0C26.925 0 0 53.85 0 53.85C0 53.85 26.925 107.7 72.3385 107.7C116.675 107.7 143.6 53.85 143.6 53.85C143.6 53.85 116.675 0 72.3385 0ZM71.8 17.95C91.7245 17.95 107.7 34.105 107.7 53.85C107.7 73.7745 91.7245 89.75 71.8 89.75C52.055 89.75 35.9 73.7745 35.9 53.85C35.9 34.105 52.055 17.95 71.8 17.95ZM71.8 35.9C61.9275 35.9 53.85 43.9775 53.85 53.85C53.85 63.7225 61.9275 71.8 71.8 71.8C81.6725 71.8 89.75 63.7225 89.75 53.85C89.75 52.055 89.032 50.4395 88.673 48.824C87.237 51.696 84.365 53.85 80.775 53.85C75.749 53.85 71.8 49.901 71.8 44.875C71.8 41.285 73.954 38.413 76.826 36.977C75.2105 36.4385 73.595 35.9 71.8 35.9Z" />
</svg>
