<svg width="16" height="16" viewBox="0 0 16 16" xmlns="http://www.w3.org/2000/svg">
<path fill-rule="evenodd" clip-rule="evenodd" d="M11.6244 7.99676L15.2498 4.37506C16.2501 3.37687 16.2501 1.75165 15.2498 0.753449C14.2483 -0.25115 12.6253 -0.25115 11.6244 0.753449L7.99969 4.37506L4.37494 0.753449C3.37468 -0.25115 1.75174 -0.25115 0.750196 0.753449C-0.250065 1.75165 -0.250065 3.37687 0.750196 4.37506L4.37494 7.99676L0.750196 11.6249C-0.250065 12.6231 -0.250065 14.2484 0.750196 15.2466C1.75174 16.2512 3.37468 16.2512 4.37494 15.2466L7.99969 11.6249L11.6244 15.2466C12.6253 16.2512 14.2483 16.2512 15.2498 15.2466C16.2501 14.2484 16.2501 12.6231 15.2498 11.6249L11.6244 7.99676Z" />
</svg>
