<svg width="24" height="24" viewBox="0 0 24 24" fill="none" xmlns="http://www.w3.org/2000/svg">
<circle cx="12" cy="12" r="11.75" fill="#1D9A46" stroke="#1D9A46" stroke-width="0.5"/>
<path d="M16.0103 9.17255C15.9561 9.11787 15.8915 9.07448 15.8205 9.04486C15.7494 9.01525 15.6731 9 15.5961 9C15.5191 9 15.4429 9.01525 15.3718 9.04486C15.3007 9.07448 15.2362 9.11787 15.182 9.17255L10.8361 13.5242L9.01029 11.6925C8.95398 11.6382 8.88752 11.5954 8.81469 11.5667C8.74185 11.538 8.66408 11.5239 8.58581 11.5253C8.50754 11.5266 8.4303 11.5434 8.3585 11.5746C8.28671 11.6058 8.22176 11.6508 8.16737 11.7071C8.11298 11.7634 8.07022 11.8299 8.04151 11.9027C8.01281 11.9756 7.99874 12.0533 8.00009 12.1316C8.00144 12.2099 8.0182 12.2871 8.04941 12.3589C8.08061 12.4307 8.12565 12.4957 8.18195 12.55L10.422 14.79C10.4762 14.8447 10.5407 14.8881 10.6118 14.9177C10.6829 14.9474 10.7591 14.9626 10.8361 14.9626C10.9131 14.9626 10.9894 14.9474 11.0605 14.9177C11.1315 14.8881 11.1961 14.8447 11.2503 14.79L16.0103 10.03C16.0695 9.97542 16.1168 9.90913 16.1491 9.83534C16.1814 9.76154 16.1981 9.68186 16.1981 9.6013C16.1981 9.52074 16.1814 9.44105 16.1491 9.36726C16.1168 9.29347 16.0695 9.22717 16.0103 9.17255Z" fill="white"/>
</svg>
