<svg width="25" height="25" viewBox="0 0 25 25" fill="none" xmlns="http://www.w3.org/2000/svg">
<path d="M20.1819 3.95459H4.18188C3.91667 3.95459 3.66231 4.05995 3.47478 4.24748C3.28724 4.43502 3.18188 4.68937 3.18188 4.95459V20.9546C3.18188 21.2198 3.28724 21.4742 3.47478 21.6617C3.66231 21.8492 3.91667 21.9546 4.18188 21.9546H20.1819C20.4471 21.9546 20.7015 21.8492 20.889 21.6617C21.0765 21.4742 21.1819 21.2198 21.1819 20.9546V4.95459C21.1819 4.68937 21.0765 4.43502 20.889 4.24748C20.7015 4.05995 20.4471 3.95459 20.1819 3.95459ZM19.1819 19.9546H5.18188V5.95459H19.1819V19.9546Z" fill="currentColor"/>
<path d="M11.1819 7.95459H13.1819V9.95459H11.1819V7.95459ZM11.1819 11.9546H13.1819V17.9546H11.1819V11.9546Z" fill="currentColor"/>
</svg>
