<svg width="21" height="20" viewBox="0 0 21 20" fill="none" xmlns="http://www.w3.org/2000/svg">
<path fill-rule="evenodd" clip-rule="evenodd" d="M13.0972 1.11111V0H14.2361V1.11111C14.2361 1.41793 14.4911 1.66667 14.8056 1.66667H18.2222C18.8512 1.66667 19.3611 2.16413 19.3611 2.77778V10C19.3611 10.3068 19.1062 10.5556 18.7917 10.5556C18.4772 10.5556 18.2222 10.3068 18.2222 10V2.77778H14.8056C13.862 2.77778 13.0972 2.03158 13.0972 1.11111Z" fill="#00AC4F"/>
<path fill-rule="evenodd" clip-rule="evenodd" d="M14.2361 4.44436V6.66659H15.375V4.44436H14.2361ZM13.6667 3.33325C13.3522 3.33325 13.0972 3.58197 13.0972 3.88881V7.22214C13.0972 7.52897 13.3522 7.7777 13.6667 7.7777H15.9445C16.259 7.7777 16.5139 7.52897 16.5139 7.22214V3.88881C16.5139 3.58197 16.259 3.33325 15.9445 3.33325H13.6667Z" fill="#00AC4F"/>
<path fill-rule="evenodd" clip-rule="evenodd" d="M14.2361 3.61107V1.66663H15.375V3.61107H14.2361Z" fill="#00AC4F"/>
<path fill-rule="evenodd" clip-rule="evenodd" d="M18.2599 10.5925H8.03487C7.68364 10.5925 7.34869 10.4553 7.10304 10.214L7.91102 9.43093C7.94388 9.46321 7.98846 9.48137 8.03487 9.48137H18.2599C19.4971 9.48137 20.5 10.468 20.5 11.685C20.5 12.9022 19.4971 13.8888 18.2599 13.8888H6.30502C6.13481 13.8888 5.97161 13.8223 5.85117 13.704L1.23402 9.16904C0.347938 8.29871 0.347938 6.88621 1.23402 6.01587C2.11811 5.14754 3.55004 5.14754 4.43411 6.01587L7.91102 9.43093L7.10304 10.214L3.62606 6.79893C3.18736 6.36799 2.48074 6.36799 2.04204 6.79893C1.59712 7.23593 1.59712 7.94898 2.04204 8.38604L6.51326 12.7777H18.2599C18.8592 12.7777 19.3611 12.2972 19.3611 11.685C19.3611 11.0729 18.8592 10.5925 18.2599 10.5925Z" fill="#00AC4F"/>
<path d="M1.70837 9.44446L2.84726 10.101V16.6667H1.70837V9.44446Z" fill="#00AC4F"/>
<path d="M17.0834 13.6241H18.2223V16.7773H17.0834V13.6241Z" fill="#00AC4F"/>
<path fill-rule="evenodd" clip-rule="evenodd" d="M20.5 16.6667H0V15.5555H20.5V16.6667Z" fill="#00AC4F"/>
<path fill-rule="evenodd" clip-rule="evenodd" d="M3.13191 18.8889C3.60364 18.8889 3.98608 18.5158 3.98608 18.0555C3.98608 17.5953 3.60364 17.2222 3.13191 17.2222C2.66018 17.2222 2.27774 17.5953 2.27774 18.0555C2.27774 18.5158 2.66018 18.8889 3.13191 18.8889ZM3.13191 20C4.23265 20 5.12497 19.1294 5.12497 18.0555C5.12497 16.9816 4.23265 16.1111 3.13191 16.1111C2.03117 16.1111 1.13885 16.9816 1.13885 18.0555C1.13885 19.1294 2.03117 20 3.13191 20Z" fill="#00AC4F"/>
<path fill-rule="evenodd" clip-rule="evenodd" d="M17.3681 18.8889C17.8398 18.8889 18.2222 18.5158 18.2222 18.0555C18.2222 17.5953 17.8398 17.2222 17.3681 17.2222C16.8963 17.2222 16.5139 17.5953 16.5139 18.0555C16.5139 18.5158 16.8963 18.8889 17.3681 18.8889ZM17.3681 20C18.4688 20 19.3611 19.1294 19.3611 18.0555C19.3611 16.9816 18.4688 16.1111 17.3681 16.1111C16.2673 16.1111 15.375 16.9816 15.375 18.0555C15.375 19.1294 16.2673 20 17.3681 20Z" fill="#00AC4F"/>
<path fill-rule="evenodd" clip-rule="evenodd" d="M3.85124 5.05746C4.69015 4.23974 6.04975 4.24018 6.88803 5.05846L7.91315 6.05907C8.75154 6.8774 8.75109 8.20374 7.91212 9.02151L7.07504 9.83746L6.27007 9.05146L7.10716 8.23551C7.5011 7.85151 7.50133 7.22879 7.10767 6.84457L6.08256 5.84396C5.68884 5.45962 5.05021 5.4594 4.65621 5.84346L3.81913 6.6594L3.01416 5.8734L3.85124 5.05746Z" fill="#00AC4F"/>
</svg>
