<svg width="20" height="20" viewBox="0 0 20 20" fill="none" xmlns="http://www.w3.org/2000/svg">
<path d="M18.267 9.66668C16.5836 5.75834 13.417 3.33334 10.0003 3.33334C6.58363 3.33334 3.41697 5.75834 1.73363 9.66668C1.68775 9.77182 1.66406 9.88529 1.66406 10C1.66406 10.1147 1.68775 10.2282 1.73363 10.3333C3.41697 14.2417 6.58363 16.6667 10.0003 16.6667C13.417 16.6667 16.5836 14.2417 18.267 10.3333C18.3129 10.2282 18.3365 10.1147 18.3365 10C18.3365 9.88529 18.3129 9.77182 18.267 9.66668ZM10.0003 15C7.35863 15 4.85863 13.0917 3.41697 10C4.85863 6.90834 7.35863 5.00001 10.0003 5.00001C12.642 5.00001 15.142 6.90834 16.5836 10C15.142 13.0917 12.642 15 10.0003 15ZM10.0003 6.66668C9.34103 6.66668 8.69656 6.86217 8.1484 7.22845C7.60024 7.59472 7.17299 8.11531 6.9207 8.7244C6.66841 9.33349 6.6024 10.0037 6.73102 10.6503C6.85963 11.2969 7.1771 11.8909 7.64328 12.357C8.10945 12.8232 8.7034 13.1407 9.35 13.2693C9.9966 13.3979 10.6668 13.3319 11.2759 13.0796C11.885 12.8273 12.4056 12.4001 12.7719 11.8519C13.1381 11.3037 13.3336 10.6593 13.3336 10C13.3336 9.11595 12.9824 8.26811 12.3573 7.64299C11.7322 7.01787 10.8844 6.66668 10.0003 6.66668ZM10.0003 11.6667C9.67066 11.6667 9.34843 11.5689 9.07435 11.3858C8.80027 11.2027 8.58665 10.9424 8.4605 10.6378C8.33435 10.3333 8.30135 9.99816 8.36566 9.67486C8.42997 9.35156 8.5887 9.05459 8.82179 8.8215C9.05488 8.58841 9.35185 8.42968 9.67515 8.36537C9.99845 8.30106 10.3336 8.33406 10.6381 8.46021C10.9426 8.58636 11.2029 8.79998 11.3861 9.07406C11.5692 9.34814 11.667 9.67037 11.667 10C11.667 10.442 11.4914 10.866 11.1788 11.1785C10.8663 11.4911 10.4423 11.6667 10.0003 11.6667Z" fill="currentColor"/>
</svg>
