<svg width="60" height="60" viewBox="0 0 60 60" fill="none" xmlns="http://www.w3.org/2000/svg">
<path d="M26.9652 30.2471L35.3874 20.9549C35.8326 20.4641 35.7954 19.7051 35.304 19.2605C34.8138 18.8153 34.0542 18.8531 33.6096 19.3439L24.4704 29.4263C24.225 29.6969 24.1314 30.0491 24.1746 30.3851C24.165 30.7235 24.2922 31.0637 24.5628 31.3085L34.644 40.4471C34.8738 40.6559 35.1624 40.7585 35.4504 40.7585C35.7774 40.7585 36.1026 40.6253 36.3396 40.3643C36.7842 39.8735 36.7476 39.1145 36.2562 38.6699L26.9652 30.2471Z" fill="white"/>
<path d="M50.4798 29.8535C50.4798 18.7847 41.4738 9.7793 30.405 9.7793C19.3362 9.7793 10.3308 18.7847 10.3308 29.8535C10.3308 40.9229 19.3362 49.9283 30.405 49.9283C41.4738 49.9283 50.4798 40.9229 50.4798 29.8535ZM30.405 47.5283C20.6592 47.5283 12.7308 39.5993 12.7308 29.8535C12.7308 20.1083 20.6592 12.1793 30.405 12.1793C40.1508 12.1793 48.0798 20.1083 48.0798 29.8535C48.0798 39.5993 40.1508 47.5283 30.405 47.5283Z" fill="white"/>
</svg>
