<svg width="70" height="74" viewBox="0 0 70 74" fill="none" xmlns="http://www.w3.org/2000/svg">
<path d="M52.7903 33.4211C54.6279 50.3963 61.8421 55.5263 61.8421 55.5263H5C5 55.5263 14.4737 48.7896 14.4737 25.2105C14.4737 19.8503 16.4699 14.7097 20.0232 10.9195C23.5766 7.12931 28.3959 5 33.4211 5C34.4862 5 35.5422 5.09568 36.5789 5.2826" stroke="black" stroke-width="9.84316" stroke-linecap="round" stroke-linejoin="round"/>
<path d="M55.5263 23.9474C60.7586 23.9474 65 19.7058 65 14.4737C65 9.24153 60.7586 5 55.5263 5C50.294 5 46.0526 9.24153 46.0526 14.4737C46.0526 19.7058 50.294 23.9474 55.5263 23.9474Z" stroke="black" stroke-width="9.84316" stroke-linecap="round" stroke-linejoin="round"/>
<path d="M38.8843 65C38.3292 65.9572 37.5324 66.7517 36.5734 67.3037C35.6146 67.856 34.5277 68.1468 33.4212 68.1468C32.3146 68.1468 31.2277 67.856 30.269 67.3037C29.3102 66.7517 28.5132 65.9572 27.958 65" stroke="black" stroke-width="9.84316" stroke-linecap="round" stroke-linejoin="round"/>
</svg>
