<svg width="60" height="75" viewBox="0 0 60 75" fill="none" xmlns="http://www.w3.org/2000/svg">
<path d="M30 41.25C28.8583 41.2367 27.7399 41.5734 26.7954 42.2149C25.8509 42.8564 25.1256 43.7718 24.717 44.838C24.3085 45.9042 24.2365 47.07 24.5106 48.1783C24.7846 49.2867 25.3917 50.2846 26.25 51.0375V56.25C26.25 57.2446 26.6451 58.1984 27.3484 58.9017C28.0516 59.6049 29.0054 60 30 60C30.9946 60 31.9484 59.6049 32.6516 58.9017C33.3549 58.1984 33.75 57.2446 33.75 56.25V51.0375C34.6083 50.2846 35.2154 49.2867 35.4894 48.1783C35.7635 47.07 35.6915 45.9042 35.283 44.838C34.8744 43.7718 34.1491 42.8564 33.2046 42.2149C32.2601 41.5734 31.1417 41.2367 30 41.25ZM48.75 26.25V18.75C48.75 13.7772 46.7746 9.00806 43.2583 5.49175C39.7419 1.97544 34.9728 0 30 0C25.0272 0 20.2581 1.97544 16.7417 5.49175C13.2254 9.00806 11.25 13.7772 11.25 18.75V26.25C8.26631 26.25 5.40483 27.4353 3.29505 29.545C1.18526 31.6548 0 34.5163 0 37.5V63.75C0 66.7337 1.18526 69.5952 3.29505 71.705C5.40483 73.8147 8.26631 75 11.25 75H48.75C51.7337 75 54.5952 73.8147 56.705 71.705C58.8147 69.5952 60 66.7337 60 63.75V37.5C60 34.5163 58.8147 31.6548 56.705 29.545C54.5952 27.4353 51.7337 26.25 48.75 26.25ZM18.75 18.75C18.75 15.7663 19.9353 12.9048 22.045 10.795C24.1548 8.68526 27.0163 7.5 30 7.5C32.9837 7.5 35.8452 8.68526 37.955 10.795C40.0647 12.9048 41.25 15.7663 41.25 18.75V26.25H18.75V18.75ZM52.5 63.75C52.5 64.7446 52.1049 65.6984 51.4017 66.4017C50.6984 67.1049 49.7446 67.5 48.75 67.5H11.25C10.2554 67.5 9.30161 67.1049 8.59835 66.4017C7.89509 65.6984 7.5 64.7446 7.5 63.75V37.5C7.5 36.5054 7.89509 35.5516 8.59835 34.8484C9.30161 34.1451 10.2554 33.75 11.25 33.75H48.75C49.7446 33.75 50.6984 34.1451 51.4017 34.8484C52.1049 35.5516 52.5 36.5054 52.5 37.5V63.75Z" fill="black"/>
</svg>
