<svg width="55" height="55" viewBox="0 0 55 55" fill="none" xmlns="http://www.w3.org/2000/svg">
<path d="M6.875 11.4583V43.5417C6.875 44.7572 7.35789 45.923 8.21743 46.7826C9.07697 47.6421 10.2428 48.125 11.4583 48.125H43.5417C44.7572 48.125 45.923 47.6421 46.7826 46.7826C47.6421 45.923 48.125 44.7572 48.125 43.5417V11.4583C48.125 10.2428 47.6421 9.07697 46.7826 8.21743C45.923 7.35789 44.7572 6.875 43.5417 6.875H11.4583C10.2428 6.875 9.07697 7.35789 8.21743 8.21743C7.35789 9.07697 6.875 10.2428 6.875 11.4583ZM16.0417 25.2083H27.5V16.0417L38.9583 27.5L27.5 38.9583V29.7917H16.0417V25.2083Z" />
</svg>
