<svg width="24" height="24" viewBox="0 0 198 198" fill="none" xmlns="http://www.w3.org/2000/svg">
<path d="M189.363 14.2233L183.488 8.34469C172.347 -2.78321 154.316 -2.77992 143.175 8.34469L24.4484 127.077L0.917305 188.606C-1.84408 195.888 1.84326 199.555 9.10259 196.781L70.6405 173.273L189.363 54.5369C200.505 43.4122 200.491 25.3644 189.363 14.2233ZM114.796 45.4816L123.061 53.7427L41.4582 135.352L33.1938 127.084L114.796 45.4816ZM127.43 58.1154L139.606 70.2945L58.0067 151.9L45.8309 139.724L127.43 58.1154ZM29.7437 182.289L15.436 167.968L29.2791 131.915L65.7867 168.416L29.7437 182.289ZM70.6405 164.537L62.3827 156.27L143.979 74.664L152.243 82.9316L70.6405 164.537ZM157.005 78.1701L119.555 40.7267L128.87 31.4078L166.32 68.8512L157.005 78.1701Z" />
</svg>
