<svg width="24" height="24" viewBox="0 0 60 60" fill="none" xmlns="http://www.w3.org/2000/svg">
<path d="M30.2999 31.95C30.1249 31.925 29.8999 31.925 29.6999 31.95C25.2999 31.8 21.7998 28.2 21.7998 23.775C21.7998 19.25 25.4499 15.575 29.9999 15.575C34.5249 15.575 38.1999 19.25 38.1999 23.775C38.1749 28.2 34.6999 31.8 30.2999 31.95Z"  stroke-width="3.75" stroke-linecap="round" stroke-linejoin="round"/>
<path d="M46.8499 48.4501C42.3999 52.5251 36.4999 55.0001 29.9999 55.0001C23.4999 55.0001 17.5999 52.5251 13.1499 48.4501C13.3999 46.1001 14.8999 43.8001 17.5749 42.0001C24.4249 37.4501 35.6249 37.4501 42.4249 42.0001C45.0999 43.8001 46.5999 46.1001 46.8499 48.4501Z"  stroke-width="3.75" stroke-linecap="round" stroke-linejoin="round"/>
<path d="M30 55C43.807 55 55 43.807 55 30C55 16.1929 43.807 5 30 5C16.1929 5 5 16.1929 5 30C5 43.807 16.1929 55 30 55Z"  stroke-width="3.75" stroke-linecap="round" stroke-linejoin="round"/>
</svg>
