<svg width="18" height="18" viewBox="0 0 18 18" fill="none" xmlns="http://www.w3.org/2000/svg">
<g>
<path d="M6.75 1.5C4.785 1.5 3.1875 3.0975 3.1875 5.0625C3.1875 6.99 4.695 8.55 6.66 8.6175C6.72 8.61 6.78 8.61 6.825 8.6175C6.84 8.6175 6.8475 8.6175 6.8625 8.6175C6.87 8.6175 6.87 8.6175 6.8775 8.6175C8.7975 8.55 10.305 6.99 10.3125 5.0625C10.3125 3.0975 8.715 1.5 6.75 1.5Z" fill="currentColor"/>
<path d="M10.5602 10.6124C8.46771 9.21741 5.05521 9.21741 2.94771 10.6124C1.99521 11.2499 1.47021 12.1124 1.47021 13.0349C1.47021 13.9574 1.99521 14.8124 2.94021 15.4424C3.99021 16.1474 5.37021 16.4999 6.75021 16.4999C8.13021 16.4999 9.51021 16.1474 10.5602 15.4424C11.5052 14.8049 12.0302 13.9499 12.0302 13.0199C12.0227 12.0974 11.5052 11.2424 10.5602 10.6124Z" fill="currentColor"/>
<path d="M14.9925 5.50507C15.1125 6.96007 14.0775 8.23507 12.645 8.40757C12.6375 8.40757 12.6375 8.40757 12.63 8.40757H12.6075C12.5625 8.40757 12.5175 8.40757 12.48 8.42257C11.7525 8.46007 11.085 8.22757 10.5825 7.80007C11.355 7.11007 11.7975 6.07507 11.7075 4.95007C11.655 4.34257 11.445 3.78757 11.13 3.31507C11.415 3.17257 11.745 3.08257 12.0825 3.05257C13.5525 2.92507 14.865 4.02007 14.9925 5.50507Z" fill="currentColor"/>
<path d="M16.4927 12.4426C16.4327 13.1701 15.9677 13.8001 15.1877 14.2276C14.4377 14.6401 13.4927 14.8351 12.5552 14.8126C13.0952 14.3251 13.4102 13.7176 13.4702 13.0726C13.5452 12.1426 13.1027 11.2501 12.2177 10.5376C11.7152 10.1401 11.1302 9.82505 10.4927 9.59255C12.1502 9.11255 14.2352 9.43505 15.5177 10.4701C16.2077 11.0251 16.5602 11.7226 16.4927 12.4426Z" fill="currentColor"/>
</g>
</svg>
