<svg width="41" height="41" viewBox="0 0 41 41" fill="none" xmlns="http://www.w3.org/2000/svg">
<path d="M23.5146 19.6811L15.0924 28.9733C14.6472 29.4641 14.6844 30.2231 15.1758 30.6677C15.666 31.1129 16.4256 31.0751 16.8702 30.5843L26.0094 20.5019C26.2548 20.2313 26.3484 19.8791 26.3052 19.5431C26.3148 19.2047 26.1876 18.8645 25.917 18.6197L15.8358 9.48114C15.606 9.27234 15.3174 9.16974 15.0294 9.16974C14.7024 9.16974 14.3772 9.30294 14.1402 9.56394C13.6956 10.0547 13.7322 10.8137 14.2236 11.2583L23.5146 19.6811Z" fill="white"/>
<path d="M-1.52588e-05 20.0747C-1.52588e-05 31.1435 9.00599 40.1489 20.0748 40.1489C31.1436 40.1489 40.149 31.1435 40.149 20.0747C40.149 9.00533 31.1436 -7.24792e-05 20.0748 -7.24792e-05C9.00599 -7.24792e-05 -1.52588e-05 9.00533 -1.52588e-05 20.0747ZM20.0748 2.39993C29.8206 2.39993 37.749 10.3289 37.749 20.0747C37.749 29.8199 29.8206 37.7489 20.0748 37.7489C10.329 37.7489 2.39999 29.8199 2.39999 20.0747C2.39999 10.3289 10.329 2.39993 20.0748 2.39993Z" fill="white"/>
</svg>
