<svg width="25" height="23" viewBox="0 0 50 48" fill="none" xmlns="http://www.w3.org/2000/svg">
<path d="M23.1728 5.02788C23.7515 3.72943 24.041 3.0802 24.444 2.88028C24.794 2.70657 25.205 2.70657 25.555 2.88028C25.958 3.0802 26.2475 3.72943 26.8263 5.02788L31.4363 15.3702C31.6075 15.7541 31.693 15.946 31.8255 16.093C31.9425 16.223 32.0858 16.327 32.2455 16.3982C32.4263 16.4787 32.6353 16.5008 33.0533 16.5449L44.314 17.7334C45.7277 17.8826 46.4345 17.9572 46.7492 18.2787C47.0225 18.5579 47.1495 18.9489 47.0925 19.3355C47.027 19.7805 46.499 20.2562 45.443 21.208L37.0313 28.7885C36.7193 29.0697 36.563 29.2105 36.4643 29.3818C36.3768 29.5335 36.322 29.7017 36.3038 29.8757C36.283 30.0725 36.3265 30.278 36.4138 30.6893L38.7633 41.766C39.0583 43.1567 39.2058 43.852 38.9973 44.2505C38.816 44.597 38.4835 44.8385 38.0983 44.9037C37.6548 44.9787 37.039 44.6238 35.8075 43.9135L25.9988 38.256C25.6348 38.046 25.4528 37.9412 25.2593 37.9C25.088 37.8637 24.911 37.8637 24.7398 37.9C24.5463 37.9412 24.3643 38.046 24.0003 38.256L14.1916 43.9135C12.9601 44.6238 12.3444 44.9787 11.9009 44.9037C11.5156 44.8385 11.183 44.597 11.0019 44.2505C10.7934 43.852 10.9409 43.1567 11.2359 41.766L13.5853 30.6893C13.6725 30.278 13.7161 30.0725 13.6954 29.8757C13.677 29.7017 13.6224 29.5335 13.5349 29.3818C13.436 29.2105 13.2799 29.0697 12.9677 28.7885L4.55615 21.208C3.50013 20.2562 2.9721 19.7805 2.90645 19.3355C2.84945 18.9489 2.97648 18.5579 3.24983 18.2787C3.56453 17.9572 4.2714 17.8826 5.68515 17.7334L16.9459 16.5449C17.3638 16.5008 17.5728 16.4787 17.7535 16.3982C17.9134 16.327 18.0565 16.223 18.1737 16.093C18.306 15.946 18.3916 15.7541 18.5627 15.3702L23.1728 5.02788Z" stroke-width="5" stroke-linecap="round" stroke-linejoin="round"/>
</svg>
