<svg width="177" height="177" viewBox="0 0 177 177" fill="none" xmlns="http://www.w3.org/2000/svg">
<path opacity="0.4" d="M88.2642 176.477C136.812 176.477 176.169 137.12 176.169 88.5717C176.169 40.0231 136.812 0.666748 88.2642 0.666748C39.7156 0.666748 0.359283 40.0231 0.359283 88.5717C0.359283 137.12 39.7156 176.477 88.2642 176.477Z" />
<path d="M75.7774 120.043C74.0193 120.043 72.3491 119.339 71.1184 118.109L46.2409 93.2315C43.6916 90.6822 43.6916 86.4628 46.2409 83.9136C48.7901 81.3643 53.0095 81.3643 55.5588 83.9136L75.7774 104.132L120.96 58.9486C123.51 56.3993 127.729 56.3993 130.278 58.9486C132.828 61.4978 132.828 65.7172 130.278 68.2665L80.4363 118.109C79.2057 119.339 77.5355 120.043 75.7774 120.043Z" />
</svg>
