<svg width="16" height="16" viewBox="0 0 16 16" fill="none" xmlns="http://www.w3.org/2000/svg">
<circle cx="8" cy="8" r="8" fill="white"/>
<path d="M11.3542 5.605C11.3078 5.55813 11.2525 5.52094 11.1915 5.49555C11.1306 5.47017 11.0652 5.4571 10.9992 5.4571C10.9332 5.4571 10.8679 5.47017 10.807 5.49555C10.746 5.52094 10.6907 5.55813 10.6442 5.605L6.91924 9.335L5.35424 7.765C5.30598 7.71838 5.24901 7.68172 5.18658 7.65712C5.12416 7.63252 5.05749 7.62045 4.9904 7.62161C4.92331 7.62278 4.85711 7.63714 4.79557 7.66389C4.73403 7.69063 4.67836 7.72924 4.63174 7.7775C4.58512 7.82576 4.54847 7.88273 4.52386 7.94516C4.49926 8.00759 4.4872 8.07425 4.48836 8.14134C4.48952 8.20843 4.50388 8.27463 4.53063 8.33617C4.55738 8.39771 4.59598 8.45338 4.64424 8.5L6.56424 10.42C6.61072 10.4669 6.66602 10.5041 6.72695 10.5294C6.78788 10.5548 6.85324 10.5679 6.91924 10.5679C6.98525 10.5679 7.0506 10.5548 7.11153 10.5294C7.17246 10.5041 7.22776 10.4669 7.27424 10.42L11.3542 6.34C11.405 6.29318 11.4455 6.23635 11.4732 6.1731C11.5009 6.10985 11.5152 6.04155 11.5152 5.9725C11.5152 5.90345 11.5009 5.83515 11.4732 5.7719C11.4455 5.70865 11.405 5.65182 11.3542 5.605Z" fill="#2B353D" stroke="#2B353D" stroke-width="0.5"/>
</svg>
