<svg width="176" height="176" viewBox="0 0 176 176" fill="none" xmlns="http://www.w3.org/2000/svg">
<path d="M175.81 87.9049C175.81 136.454 136.454 175.81 87.9049 175.81C39.3563 175.81 0 136.454 0 87.9049C0 39.3563 39.3563 0 87.9049 0C136.454 0 175.81 39.3563 175.81 87.9049ZM77.737 134.45L142.957 69.2301C145.171 67.0155 145.171 63.4245 142.957 61.2098L134.937 53.1896C132.722 50.9746 129.131 50.9746 126.916 53.1896L73.7267 106.378L48.8939 81.5457C46.6793 79.331 43.0883 79.331 40.8733 81.5457L32.8531 89.5659C30.6384 91.7806 30.6384 95.3715 32.8531 97.5862L69.7164 134.45C71.9314 136.665 75.522 136.665 77.737 134.45Z" fill="black"/>
</svg>
