<svg width="19" height="19" viewBox="0 0 19 19" fill="none" xmlns="http://www.w3.org/2000/svg">
<g opacity="0.3">
<path d="M9.4987 17.4167C5.12644 17.4167 1.58203 13.8722 1.58203 9.5C1.58203 5.12774 5.12644 1.58333 9.4987 1.58333C13.8709 1.58333 17.4154 5.12774 17.4154 9.5C17.4154 13.8722 13.8709 17.4167 9.4987 17.4167ZM9.4987 15.8333C12.9965 15.8333 15.832 12.9978 15.832 9.5C15.832 6.0022 12.9965 3.16667 9.4987 3.16667C6.00089 3.16667 3.16536 6.0022 3.16536 9.5C3.16536 12.9978 6.00089 15.8333 9.4987 15.8333ZM10.2904 9.5H13.457V11.0833H8.70703V5.54167H10.2904V9.5Z" fill="#2B353D"/>
</g>
</svg>
