<svg xmlns="http://www.w3.org/2000/svg" width="20" height="20" viewBox="0 0 20 20" fill="none">
  <path d="M2.5 15.4167V4.16669C2.5 2.78598 3.61929 1.66669 5 1.66669H16.6667C17.1269 1.66669 17.5 2.03979 17.5 2.50002V17.5C17.5 17.9603 17.1269 18.3334 16.6667 18.3334H5.41667C3.80583 18.3334 2.5 17.0275 2.5 15.4167ZM15.8333 16.6667V14.1667H5.41667C4.72631 14.1667 4.16667 14.7264 4.16667 15.4167C4.16667 16.107 4.72631 16.6667 5.41667 16.6667H15.8333ZM8.33333 3.33335H5C4.53977 3.33335 4.16667 3.70645 4.16667 4.16669V12.7807C4.54552 12.6007 4.96933 12.5 5.41667 12.5H15.8333V3.33335H14.1667V10L11.25 8.33335L8.33333 10V3.33335Z" fill="white"/>
</svg>