<svg width="176" height="201" viewBox="0 0 176 201" fill="none" xmlns="http://www.w3.org/2000/svg">
<path d="M12.5579 182.089C12.5579 187.085 14.5424 191.876 18.075 195.409C21.6076 198.941 26.3988 200.926 31.3946 200.926H144.415C149.411 200.926 154.202 198.941 157.735 195.409C161.267 191.876 163.252 187.085 163.252 182.089V50.2315H12.5579V182.089ZM119.3 81.6261C119.3 79.9608 119.961 78.3638 121.139 77.1862C122.316 76.0087 123.913 75.3472 125.579 75.3472C127.244 75.3472 128.841 76.0087 130.018 77.1862C131.196 78.3638 131.857 79.9608 131.857 81.6261V169.531C131.857 171.196 131.196 172.793 130.018 173.971C128.841 175.148 127.244 175.81 125.579 175.81C123.913 175.81 122.316 175.148 121.139 173.971C119.961 172.793 119.3 171.196 119.3 169.531V81.6261ZM81.626 81.6261C81.626 79.9608 82.2876 78.3638 83.4651 77.1862C84.6426 76.0087 86.2397 75.3472 87.905 75.3472C89.5702 75.3472 91.1673 76.0087 92.3448 77.1862C93.5224 78.3638 94.1839 79.9608 94.1839 81.6261V169.531C94.1839 171.196 93.5224 172.793 92.3448 173.971C91.1673 175.148 89.5702 175.81 87.905 175.81C86.2397 175.81 84.6426 175.148 83.4651 173.971C82.2876 172.793 81.626 171.196 81.626 169.531V81.6261ZM43.9525 81.6261C43.9525 79.9608 44.614 78.3638 45.7915 77.1862C46.9691 76.0087 48.5661 75.3472 50.2314 75.3472C51.8967 75.3472 53.4937 76.0087 54.6713 77.1862C55.8488 78.3638 56.5103 79.9608 56.5103 81.6261V169.531C56.5103 171.196 55.8488 172.793 54.6713 173.971C53.4937 175.148 51.8967 175.81 50.2314 175.81C48.5661 175.81 46.9691 175.148 45.7915 173.971C44.614 172.793 43.9525 171.196 43.9525 169.531V81.6261ZM169.531 12.5579H122.439L118.75 5.21943C117.969 3.65053 116.765 2.33082 115.274 1.40874C113.784 0.486663 112.066 -0.00118827 110.313 6.88041e-05H65.4578C63.709 -0.00665378 61.9937 0.479378 60.5085 1.40248C59.0232 2.32558 57.8279 3.64842 57.0597 5.21943L53.3709 12.5579H6.27893C4.61365 12.5579 3.01658 13.2194 1.83905 14.397C0.661528 15.5745 0 17.1716 0 18.8368L0 31.3947C0 33.06 0.661528 34.657 1.83905 35.8346C3.01658 37.0121 4.61365 37.6736 6.27893 37.6736H169.531C171.196 37.6736 172.793 37.0121 173.971 35.8346C175.148 34.657 175.81 33.06 175.81 31.3947V18.8368C175.81 17.1716 175.148 15.5745 173.971 14.397C172.793 13.2194 171.196 12.5579 169.531 12.5579Z" />
</svg>
