<svg width="10" height="10" viewBox="0 0 10 10" fill="none" xmlns="http://www.w3.org/2000/svg">
<path d="M9 2H7V1.5C7 1.10218 6.84196 0.720644 6.56066 0.43934C6.27936 0.158035 5.89782 0 5.5 0H4.5C4.10218 0 3.72064 0.158035 3.43934 0.43934C3.15804 0.720644 3 1.10218 3 1.5V2H1C0.867392 2 0.740215 2.05268 0.646447 2.14645C0.552678 2.24021 0.5 2.36739 0.5 2.5C0.5 2.63261 0.552678 2.75978 0.646447 2.85355C0.740215 2.94732 0.867392 3 1 3H1.5V8.5C1.5 8.89782 1.65804 9.27935 1.93934 9.56066C2.22064 9.84196 2.60218 10 3 10H7C7.39782 10 7.77936 9.84196 8.06066 9.56066C8.34196 9.27935 8.5 8.89782 8.5 8.5V3H9C9.13261 3 9.25979 2.94732 9.35355 2.85355C9.44732 2.75978 9.5 2.63261 9.5 2.5C9.5 2.36739 9.44732 2.24021 9.35355 2.14645C9.25979 2.05268 9.13261 2 9 2ZM4 1.5C4 1.36739 4.05268 1.24021 4.14645 1.14645C4.24021 1.05268 4.36739 1 4.5 1H5.5C5.63261 1 5.75979 1.05268 5.85355 1.14645C5.94732 1.24021 6 1.36739 6 1.5V2H4V1.5ZM7.5 8.5C7.5 8.63261 7.44732 8.75978 7.35355 8.85355C7.25979 8.94732 7.13261 9 7 9H3C2.86739 9 2.74021 8.94732 2.64645 8.85355C2.55268 8.75978 2.5 8.63261 2.5 8.5V3H7.5V8.5Z" fill="white"/>
</svg>
