<svg width="31" height="31" viewBox="0 0 31 31" fill="none" xmlns="http://www.w3.org/2000/svg">
<path d="M27.4697 10.9775H18.6404C18.2654 10.9775 17.9586 11.284 17.9586 11.6586C17.9586 12.0332 18.2654 12.3397 18.6404 12.3397H27.4697C28.2197 12.3397 28.8333 12.9525 28.8333 13.7018V27.6636C28.8333 28.4128 28.2197 29.0257 27.4697 29.0257H2.92415C2.17406 29.0257 1.56052 28.4128 1.56052 27.6636V13.7018C1.56052 12.9525 2.17408 12.3397 2.92415 12.3397H11.5488C11.9238 12.3397 12.2306 12.0332 12.2306 11.6586C12.2306 11.284 11.9238 10.9775 11.5488 10.9775H2.92415C1.42424 10.9775 0.196899 12.2036 0.196899 13.7018V27.6636C0.196899 29.1618 1.4243 30.3878 2.92415 30.3878H27.4697C28.9696 30.3878 30.1969 29.1618 30.1969 27.6636V13.7018C30.1969 12.2035 28.9698 10.9775 27.4697 10.9775Z" fill="black"/>
<path d="M15.1972 21.534C15.5722 21.534 15.879 21.2275 15.879 20.8529V2.737L19.6289 6.48275C19.7652 6.61887 19.9357 6.68705 20.1062 6.68705C20.2767 6.68705 20.447 6.61886 20.5835 6.48275C20.8563 6.21028 20.8563 5.8017 20.5835 5.52923L15.6745 0.625699C15.6405 0.591734 15.6063 0.557516 15.5723 0.523554L15.5383 0.48959C15.5043 0.48959 15.5043 0.455624 15.47 0.455624C15.436 0.455624 15.436 0.455624 15.4018 0.42166C15.3678 0.42166 15.3678 0.42166 15.3335 0.387695H15.1972H15.061H14.9927C14.9587 0.387695 14.9587 0.387695 14.9244 0.42166C14.8904 0.42166 14.8904 0.455624 14.8562 0.455624C14.8222 0.455624 14.8222 0.48959 14.7879 0.48959C14.7539 0.523554 14.7197 0.557773 14.6857 0.591735L9.81066 5.52927C9.53788 5.80175 9.53788 6.21033 9.81066 6.48279C9.94693 6.6189 10.1174 6.68708 10.288 6.68708C10.4585 6.68708 10.6287 6.6189 10.7653 6.48279L14.5152 2.73704L14.5154 20.8529C14.5154 21.2276 14.8222 21.534 15.1972 21.534L15.1972 21.534Z" fill="black"/>
</svg>
