<svg xmlns="http://www.w3.org/2000/svg" width="20" height="20" viewBox="0 0 20 20" fill="none">
  <path d="M3.33203 18.3333C3.33203 14.6514 6.3168 11.6666 9.9987 11.6666C13.6806 11.6666 16.6654 14.6514 16.6654 18.3333H14.9987C14.9987 15.5719 12.7601 13.3333 9.9987 13.3333C7.23727 13.3333 4.9987 15.5719 4.9987 18.3333H3.33203ZM9.9987 10.8333C7.2362 10.8333 4.9987 8.59581 4.9987 5.83331C4.9987 3.07081 7.2362 0.833313 9.9987 0.833313C12.7612 0.833313 14.9987 3.07081 14.9987 5.83331C14.9987 8.59581 12.7612 10.8333 9.9987 10.8333ZM9.9987 9.16665C11.8404 9.16665 13.332 7.67498 13.332 5.83331C13.332 3.99165 11.8404 2.49998 9.9987 2.49998C8.15703 2.49998 6.66536 3.99165 6.66536 5.83331C6.66536 7.67498 8.15703 9.16665 9.9987 9.16665Z" fill="#79B4B9"/>
</svg>