<svg width="24" height="24" viewBox="0 0 60 60" fill="none" xmlns="http://www.w3.org/2000/svg">
<g clip-path="url(#clip0_1451_11)">
<path d="M32.4642 30.7914L29.3456 30.4537C28.9189 30.4075 28.5581 30.127 28.3943 29.7304C28.3923 29.7257 28.3903 29.7209 28.3884 29.7162C28.224 29.3198 28.2806 28.8664 28.5497 28.5321L30.5161 26.0881C30.8869 25.6273 30.8509 24.9612 30.4327 24.543L26.7517 20.862C26.3334 20.4438 25.6675 20.4078 25.2066 20.7786L22.7616 22.7458C22.428 23.0142 21.9759 23.0711 21.5801 22.9082C21.5757 22.9065 21.5714 22.9047 21.5671 22.903C21.1691 22.7396 20.8875 22.3782 20.8412 21.9505L20.5034 18.8305C20.4397 18.2424 19.9433 17.7969 19.3519 17.7969H14.1462C13.5547 17.7969 13.0583 18.2424 12.9947 18.8305L12.6568 21.9505C12.6105 22.3781 12.3288 22.7396 11.9309 22.903C11.9265 22.9047 11.9222 22.9065 11.918 22.9082C11.5221 23.0713 11.07 23.0142 10.7365 22.7458L8.29125 20.7786C7.83047 20.4078 7.16437 20.4438 6.74625 20.862L3.06527 24.543C2.64703 24.9612 2.61105 25.6273 2.98184 26.0881L4.94824 28.5321C5.2173 28.8665 5.27391 29.3198 5.10949 29.7162C5.1075 29.7209 5.10562 29.7257 5.10363 29.7304C4.93969 30.127 4.57898 30.4075 4.1523 30.4537L1.03359 30.7914C0.445547 30.8551 0 31.3515 0 31.9429V37.1486C0 37.7401 0.445547 38.2365 1.03359 38.3001L4.15219 38.6377C4.57887 38.6839 4.93969 38.9645 5.10352 39.361C5.10551 39.3657 5.10738 39.3705 5.10937 39.3752C5.27379 39.7716 5.21719 40.225 4.94812 40.5595L2.98172 43.0034C2.61094 43.4642 2.64691 44.1303 3.06516 44.5486L6.74613 48.2295C7.16437 48.6478 7.83047 48.6837 8.29125 48.313L10.7362 46.3457C11.0698 46.0773 11.5219 46.0203 11.9177 46.1833C11.9221 46.1851 11.9264 46.1868 11.9307 46.1886C12.3287 46.352 12.6103 46.7134 12.6566 47.1411L12.9945 50.2611C13.0581 50.8491 13.5545 51.2947 14.1459 51.2947H19.3516C19.9431 51.2947 20.4395 50.8491 20.5031 50.2611L20.841 47.1411C20.8873 46.7135 21.1689 46.352 21.5668 46.1886C21.5712 46.1868 21.5755 46.1851 21.5797 46.1833C21.9756 46.0203 22.4277 46.0773 22.7613 46.3457L25.2063 48.313C25.6671 48.6837 26.3332 48.6478 26.7514 48.2295L30.4324 44.5486C30.8507 44.1303 30.8865 43.4642 30.5159 43.0034L28.5495 40.5595C28.2804 40.2252 28.2238 39.7718 28.3882 39.3752C28.3901 39.3705 28.3921 39.3658 28.3941 39.361C28.558 38.9645 28.9187 38.6839 29.3454 38.6377L32.464 38.3001C33.0519 38.2364 33.4976 37.74 33.4976 37.1486V31.9429C33.4978 31.3515 33.0523 30.8551 32.4642 30.7914ZM16.7489 39.7675C13.865 39.7675 11.5271 37.4296 11.5271 34.5458C11.5271 31.6619 13.865 29.324 16.7489 29.324C19.6328 29.324 21.9707 31.6619 21.9707 34.5458C21.9707 37.4296 19.6328 39.7675 16.7489 39.7675Z" fill="#5E3AE4"/>
<path d="M59.469 25.5717L57.3281 23.8811C56.987 23.6118 56.7977 23.1989 56.7974 22.7643C56.7974 22.7597 56.7974 22.7551 56.7974 22.7504C56.7967 22.3149 56.9862 21.901 57.3281 21.6311L59.469 19.9403C59.9593 19.5531 60.1327 18.8874 59.8936 18.3102L58.9532 16.0398C58.7142 15.4626 58.1207 15.1145 57.5003 15.1874L54.791 15.5057C54.3583 15.5565 53.9316 15.3979 53.6242 15.0893C53.6211 15.086 53.6178 15.0827 53.6145 15.0796C53.3072 14.7721 53.1493 14.3462 53.2 13.9146L53.5183 11.2054C53.5912 10.585 53.243 9.99154 52.6659 9.75248L50.3955 8.81216C49.8183 8.5731 49.1526 8.74654 48.7654 9.23673L47.0746 11.3775C46.8052 11.7186 46.3924 11.9079 45.9578 11.9081C45.9531 11.9081 45.9486 11.9081 45.944 11.9081C45.5085 11.9088 45.0946 11.7194 44.8246 11.3775L43.1338 9.23662C42.7467 8.7463 42.0808 8.57287 41.5036 8.81193L39.2333 9.75236C38.6561 9.99142 38.3079 10.5849 38.3808 11.2054L38.6991 13.9147C38.75 14.3473 38.5913 14.774 38.2827 15.0815C38.2795 15.0847 38.2762 15.088 38.2729 15.0913C37.9654 15.3986 37.5397 15.5565 37.1079 15.5058L34.3987 15.1875C33.7782 15.1146 33.1849 15.4628 32.9458 16.0399L32.0054 18.3103C31.7663 18.8875 31.9397 19.5533 32.4301 19.9405L34.5708 21.6312C34.912 21.9006 35.1012 22.3133 35.1015 22.748C35.1015 22.7527 35.1015 22.7572 35.1015 22.7618C35.1023 23.1974 34.9127 23.6113 34.5708 23.8812L32.4299 25.572C31.9396 25.9592 31.7662 26.6249 32.0054 27.202L32.9457 29.4724C33.1847 30.0496 33.7782 30.3978 34.3986 30.3249L37.1081 30.0066C37.5406 29.9557 37.9673 30.1144 38.2748 30.4229C38.2781 30.4262 38.2812 30.4295 38.2845 30.4327C38.5918 30.7402 38.7497 31.1659 38.699 31.5976L38.3807 34.307C38.3078 34.9275 38.656 35.5208 39.2331 35.7599L41.5035 36.7003C42.0807 36.9394 42.7464 36.766 43.1337 36.2756L44.8244 34.1349C45.0938 33.7937 45.5065 33.6045 45.9412 33.6042C45.9458 33.6042 45.9503 33.6042 45.955 33.6042C46.3905 33.6034 46.8045 33.793 47.0744 34.1349L48.7652 36.2758C49.1524 36.7661 49.8181 36.9395 50.3954 36.7004L52.6658 35.76C53.2429 35.521 53.5911 34.9275 53.5182 34.3071L53.1999 31.5978C53.149 31.1652 53.3077 30.7384 53.6163 30.431C53.6195 30.4278 53.6228 30.4245 53.6261 30.4213C53.9336 30.1142 54.3593 29.9561 54.7911 30.0068L57.5004 30.3251C58.121 30.398 58.7143 30.0498 58.9533 29.4727L59.8938 27.2023C60.1326 26.6248 59.9593 25.9589 59.469 25.5717ZM47.3376 26.8009C45.1598 27.703 42.663 26.6688 41.7609 24.4909C40.8588 22.313 41.8931 19.8163 44.0709 18.9142C46.2487 18.0121 48.7455 19.0463 49.6476 21.2242C50.5496 23.402 49.5154 25.8989 47.3376 26.8009Z" fill="#5E3AE4"/>
</g>
<defs>
<clipPath id="clip0_1451_11">
<rect width="60" height="60" fill="white"/>
</clipPath>
</defs>
</svg>
