<svg width="22" height="22" viewBox="0 0 22 22" fill="none" xmlns="http://www.w3.org/2000/svg">
<path d="M11 0C4.93429 0 0 4.93429 0 11C0 17.0657 4.93429 22 11 22C17.0657 22 22 17.0657 22 11C22 4.93429 17.0657 0 11 0ZM11 20.1682C5.94449 20.1682 1.83184 16.0555 1.83184 11C1.83184 5.94449 5.94449 1.83184 11 1.83184C16.0555 1.83184 20.1682 5.94449 20.1682 11C20.1682 16.0555 16.0555 20.1682 11 20.1682Z" />
<path d="M15.5616 10.0841H11.9159V6.43838C11.9159 5.93103 11.5074 5.52246 11 5.52246C10.4927 5.52246 10.0841 5.93103 10.0841 6.43838V10.0841H6.43838C5.93103 10.0841 5.52246 10.4927 5.52246 11C5.52246 11.5074 5.93103 11.9159 6.43838 11.9159H10.0841V15.5616C10.0841 16.069 10.4927 16.4776 11 16.4776C11.5074 16.4776 11.9159 16.069 11.9159 15.5616V11.9159H15.5616C16.069 11.9159 16.4776 11.5074 16.4776 11C16.4776 10.4927 16.069 10.0841 15.5616 10.0841Z" />
</svg>
