<svg width="18" height="18" viewBox="0 0 18 18" fill="none" xmlns="http://www.w3.org/2000/svg">
<g>
<path d="M15.7275 12.06C15.5475 14.0625 14.1 15.375 12 15.375H5.25C3.18 15.375 1.5 13.695 1.5 11.625V6.375C1.5 4.335 2.73 2.91 4.6425 2.67C4.8375 2.64 5.04 2.625 5.25 2.625H12C12.195 2.625 12.3825 2.6325 12.5625 2.6625C14.355 2.8725 15.57 4.125 15.7275 5.94C15.75 6.1575 15.57 6.3375 15.3525 6.3375H14.19C13.47 6.3375 12.8025 6.615 12.3225 7.11C11.7525 7.665 11.4675 8.445 11.535 9.225C11.655 10.59 12.855 11.6625 14.28 11.6625H15.3525C15.57 11.6625 15.75 11.8425 15.7275 12.06Z"  fill="currentColor"/>
<path d="M16.5002 8.2274V9.7724C16.5002 10.1849 16.1702 10.5224 15.7502 10.5374H14.2802C13.4702 10.5374 12.7277 9.9449 12.6602 9.1349C12.6152 8.6624 12.7952 8.2199 13.1102 7.9124C13.3877 7.6274 13.7702 7.4624 14.1902 7.4624H15.7502C16.1702 7.4774 16.5002 7.8149 16.5002 8.2274Z" fill="currentColor"/>
</g>
</svg>
