<svg width="21" height="18" viewBox="0 0 21 18" fill="none" xmlns="http://www.w3.org/2000/svg">
<path d="M10.1516 0C9.60321 0 9.09672 0.274843 8.81585 0.745407L0.211006 15.1956C-0.0700611 15.6674 -0.0706095 16.2517 0.211006 16.7232C0.486214 17.1837 0.982428 17.4773 1.53213 17.476H18.7718C19.3215 17.4784 19.8177 17.1836 20.0929 16.7232C20.3747 16.2517 20.3742 15.6675 20.0929 15.1956L11.4881 0.745407C11.2072 0.274829 10.7007 0 10.1523 0H10.1516ZM10.1516 0.944625C10.3547 0.944625 10.5801 1.07243 10.6757 1.23247L19.2805 15.6751C19.3761 15.8353 19.3763 16.0758 19.2805 16.236C19.1781 16.4072 18.9747 16.5317 18.7713 16.5311H1.53162C1.32819 16.5311 1.12457 16.407 1.02241 16.236C0.926647 16.0758 0.927012 15.8353 1.02241 15.6751L9.62726 1.23247C9.72266 1.07261 9.94806 0.944625 10.1513 0.944625H10.1516ZM10.1516 4.95938C9.49938 4.95938 8.97077 5.48798 8.97077 6.1402L9.20698 10.8633C9.20698 11.385 9.62995 11.808 10.1516 11.808C10.6733 11.808 11.0962 11.385 11.0962 10.8633L11.3324 6.1402C11.3324 5.48798 10.8038 4.95938 10.1516 4.95938ZM10.1516 12.5166C9.36902 12.5166 8.73457 13.151 8.73457 13.9336C8.73457 14.7162 9.36902 15.3506 10.1516 15.3506C10.9342 15.3506 11.5686 14.7162 11.5686 13.9336C11.5686 13.151 10.9342 12.5166 10.1516 12.5166Z" fill="black"/>
</svg>
