<svg width="40" height="40" viewBox="0 0 40 40" fill="none" xmlns="http://www.w3.org/2000/svg">
<circle cx="20" cy="20" r="20" fill="#2B353D"/>
<path d="M24.1664 19.1667H17.8414L20.5914 16.425C20.7483 16.2681 20.8365 16.0552 20.8365 15.8333C20.8365 15.6114 20.7483 15.3986 20.5914 15.2417C20.4345 15.0847 20.2217 14.9966 19.9998 14.9966C19.7778 14.9966 19.565 15.0847 19.4081 15.2417L15.2414 19.4083C15.1656 19.4876 15.1061 19.581 15.0664 19.6833C14.9831 19.8862 14.9831 20.1138 15.0664 20.3167C15.1061 20.419 15.1656 20.5124 15.2414 20.5917L19.4081 24.7583C19.4856 24.8364 19.5777 24.8984 19.6793 24.9407C19.7808 24.983 19.8897 25.0048 19.9998 25.0048C20.1098 25.0048 20.2187 24.983 20.3202 24.9407C20.4218 24.8984 20.5139 24.8364 20.5914 24.7583C20.6695 24.6809 20.7315 24.5887 20.7738 24.4871C20.8161 24.3856 20.8379 24.2767 20.8379 24.1667C20.8379 24.0566 20.8161 23.9477 20.7738 23.8462C20.7315 23.7446 20.6695 23.6525 20.5914 23.575L17.8414 20.8333H24.1664C24.3874 20.8333 24.5994 20.7455 24.7557 20.5892C24.912 20.433 24.9998 20.221 24.9998 20C24.9998 19.779 24.912 19.567 24.7557 19.4107C24.5994 19.2545 24.3874 19.1667 24.1664 19.1667Z" fill="white"/>
</svg>
