<svg width="12" height="12" viewBox="0 0 12 12" fill="none" xmlns="http://www.w3.org/2000/svg">
<path d="M10.2785 0.295367L6 4.57384L1.72153 0.295367C1.5324 0.106247 1.2759 6.80045e-07 1.00845 6.80045e-07C0.740989 6.80045e-07 0.484487 0.106247 0.295367 0.295367C0.106246 0.484488 0 0.74099 0 1.00845C0 1.2759 0.106246 1.53241 0.295367 1.72153L4.57384 6L0.295367 10.2785C0.106246 10.4676 0 10.7241 0 10.9916C0 11.259 0.106246 11.5155 0.295367 11.7046C0.484487 11.8938 0.740989 12 1.00845 12C1.2759 12 1.5324 11.8938 1.72153 11.7046L6 7.42616L10.2785 11.7046C10.4676 11.8938 10.7241 12 10.9916 12C11.259 12 11.5155 11.8938 11.7046 11.7046C11.8938 11.5155 12 11.259 12 10.9916C12 10.7241 11.8938 10.4676 11.7046 10.2785L7.42616 6L11.7046 1.72153C11.8938 1.53241 12 1.2759 12 1.00845C12 0.740989 11.8938 0.484488 11.7046 0.295367C11.5155 0.106247 11.259 0 10.9916 0C10.7241 0 10.4676 0.106247 10.2785 0.295367Z" fill="#2B353D"/>
</svg>
